<svg width="29" height="28" viewBox="0 0 29 28" fill="none" xmlns="http://www.w3.org/2000/svg">
<path d="M20.625 7.875H4.875C4.41087 7.875 3.96575 8.05937 3.63756 8.38756C3.30937 8.71575 3.125 9.16087 3.125 9.625V21.875C3.125 22.3391 3.30937 22.7842 3.63756 23.1124C3.96575 23.4406 4.41087 23.625 4.875 23.625H20.625C21.0891 23.625 21.5342 23.4406 21.8624 23.1124C22.1906 22.7842 22.375 22.3391 22.375 21.875V9.625C22.375 9.16087 22.1906 8.71575 21.8624 8.38756C21.5342 8.05937 21.0891 7.875 20.625 7.875ZM20.625 21.875H4.875V9.625H20.625V21.875ZM25.875 6.125V19.25C25.875 19.4821 25.7828 19.7046 25.6187 19.8687C25.4546 20.0328 25.2321 20.125 25 20.125C24.7679 20.125 24.5454 20.0328 24.3813 19.8687C24.2172 19.7046 24.125 19.4821 24.125 19.25V6.125H7.5C7.26794 6.125 7.04538 6.03281 6.88128 5.86872C6.71719 5.70462 6.625 5.48206 6.625 5.25C6.625 5.01794 6.71719 4.79538 6.88128 4.63128C7.04538 4.46719 7.26794 4.375 7.5 4.375H24.125C24.5891 4.375 25.0342 4.55937 25.3624 4.88756C25.6906 5.21575 25.875 5.66087 25.875 6.125Z" fill="#BBBBBB"/>
</svg>
