<svg width="29" height="28" viewBox="0 0 29 28" fill="none" xmlns="http://www.w3.org/2000/svg">
<path d="M20.625 7.875H4.875C3.9085 7.875 3.125 8.6585 3.125 9.625V21.875C3.125 22.8415 3.9085 23.625 4.875 23.625H20.625C21.5915 23.625 22.375 22.8415 22.375 21.875V9.625C22.375 8.6585 21.5915 7.875 20.625 7.875Z" fill="#5B2EFF"/>
<path d="M24.125 4.375H7.5C7.26794 4.375 7.04538 4.46719 6.88128 4.63128C6.71719 4.79538 6.625 5.01794 6.625 5.25C6.625 5.48206 6.71719 5.70462 6.88128 5.86872C7.04538 6.03281 7.26794 6.125 7.5 6.125H24.125V19.25C24.125 19.4821 24.2172 19.7046 24.3813 19.8687C24.5454 20.0328 24.7679 20.125 25 20.125C25.2321 20.125 25.4546 20.0328 25.6187 19.8687C25.7828 19.7046 25.875 19.4821 25.875 19.25V6.125C25.875 5.66087 25.6906 5.21575 25.3624 4.88756C25.0342 4.55937 24.5891 4.375 24.125 4.375Z" fill="#5B2EFF"/>
</svg>
