<svg width="28" height="20" viewBox="0 0 28 20" fill="none" xmlns="http://www.w3.org/2000/svg">
<path d="M26.775 11.45C26.6831 11.5189 26.5785 11.5691 26.4672 11.5976C26.3559 11.6261 26.24 11.6325 26.1263 11.6162C26.0125 11.6 25.9031 11.5615 25.8042 11.5029C25.7053 11.4444 25.619 11.3669 25.55 11.275C25.0226 10.5661 24.3362 9.99093 23.5459 9.59579C22.7556 9.20065 21.8836 8.99657 21 9C20.828 8.99999 20.6597 8.94924 20.5163 8.85411C20.373 8.75898 20.2608 8.62369 20.1939 8.46516C20.1485 8.35751 20.1251 8.24185 20.1251 8.125C20.1251 8.00816 20.1485 7.8925 20.1939 7.78485C20.2608 7.62632 20.373 7.49102 20.5163 7.39589C20.6597 7.30076 20.828 7.25002 21 7.25C21.491 7.24996 21.9721 7.11223 22.3887 6.85247C22.8053 6.59271 23.1407 6.22132 23.3568 5.78048C23.5729 5.33965 23.6611 4.84705 23.6112 4.35863C23.5614 3.87021 23.3756 3.40555 23.075 3.01743C22.7743 2.62931 22.3708 2.33329 21.9104 2.16299C21.4499 1.99269 20.9509 1.95493 20.47 2.05402C19.9892 2.1531 19.5458 2.38504 19.1901 2.72351C18.8345 3.06197 18.5809 3.49339 18.4582 3.96875C18.4294 4.08007 18.3791 4.18463 18.3099 4.27648C18.2408 4.36833 18.1542 4.44567 18.0552 4.50407C17.9562 4.56246 17.8466 4.60079 17.7328 4.61685C17.6189 4.6329 17.5031 4.62638 17.3917 4.59766C17.2804 4.56893 17.1759 4.51856 17.084 4.44942C16.9922 4.38028 16.9148 4.29373 16.8564 4.19471C16.798 4.09568 16.7597 3.98612 16.7437 3.87229C16.7276 3.75845 16.7341 3.64257 16.7628 3.53125C16.9332 2.87206 17.2551 2.26173 17.7028 1.74882C18.1505 1.23591 18.7118 0.834581 19.342 0.57676C19.9721 0.318939 20.6537 0.211745 21.3326 0.263707C22.0114 0.31567 22.6688 0.525355 23.2524 0.876077C23.8359 1.2268 24.3296 1.70888 24.694 2.28396C25.0585 2.85904 25.2837 3.51124 25.3518 4.18868C25.4198 4.86612 25.3288 5.55009 25.086 6.18616C24.8432 6.82224 24.4553 7.39288 23.9532 7.85266C25.1429 8.36781 26.1772 9.1853 26.9533 10.2239C27.0222 10.3161 27.0723 10.4209 27.1007 10.5325C27.129 10.644 27.1351 10.76 27.1185 10.8739C27.102 10.9878 27.0631 11.0973 27.0042 11.1962C26.9452 11.295 26.8674 11.3813 26.775 11.45ZM20.8819 18.1875C20.9452 18.2871 20.9877 18.3985 21.0069 18.5149C21.026 18.6314 21.0214 18.7505 20.9934 18.8651C20.9653 18.9797 20.9143 19.0875 20.8435 19.1819C20.7727 19.2763 20.6835 19.3554 20.5814 19.4145C20.4792 19.4735 20.3661 19.5113 20.249 19.5255C20.1318 19.5398 20.013 19.5301 19.8997 19.4973C19.7863 19.4644 19.6808 19.4089 19.5895 19.3342C19.4981 19.2595 19.4229 19.1671 19.3682 19.0625C18.817 18.1292 18.0319 17.3557 17.0906 16.8183C16.1492 16.281 15.084 15.9984 14 15.9984C12.9161 15.9984 11.8509 16.281 10.9095 16.8183C9.96812 17.3557 9.1831 18.1292 8.6319 19.0625C8.5772 19.1671 8.50191 19.2595 8.41057 19.3342C8.31922 19.4089 8.21371 19.4644 8.10037 19.4973C7.98703 19.5301 7.86822 19.5398 7.75107 19.5255C7.63392 19.5113 7.52086 19.4735 7.41869 19.4145C7.31652 19.3554 7.22735 19.2763 7.15655 19.1819C7.08575 19.0875 7.03478 18.9797 7.0067 18.8651C6.97863 18.7505 6.97403 18.6314 6.99318 18.5149C7.01233 18.3985 7.05484 18.2871 7.11815 18.1875C7.96646 16.7299 9.25993 15.5829 10.8085 14.915C9.9371 14.2479 9.29671 13.3244 8.97731 12.2745C8.6579 11.2246 8.67554 10.101 9.02775 9.06159C9.37995 8.02221 10.049 7.11933 10.9409 6.47987C11.8328 5.8404 12.9026 5.4965 14 5.4965C15.0975 5.4965 16.1673 5.8404 17.0592 6.47987C17.951 7.11933 18.6201 8.02221 18.9723 9.06159C19.3245 10.101 19.3422 11.2246 19.0227 12.2745C18.7033 13.3244 18.0629 14.2479 17.1916 14.915C18.7401 15.5829 20.0336 16.7299 20.8819 18.1875ZM14 14.25C14.6923 14.25 15.3689 14.0447 15.9445 13.6601C16.5201 13.2756 16.9687 12.7289 17.2336 12.0894C17.4985 11.4499 17.5678 10.7461 17.4328 10.0672C17.2977 9.38825 16.9644 8.76461 16.4749 8.27513C15.9854 7.78564 15.3618 7.4523 14.6828 7.31725C14.0039 7.18221 13.3002 7.25152 12.6606 7.51642C12.0211 7.78133 11.4745 8.22993 11.0899 8.80551C10.7053 9.38108 10.5 10.0578 10.5 10.75C10.5 11.6783 10.8688 12.5685 11.5252 13.2249C12.1815 13.8813 13.0718 14.25 14 14.25ZM7.87503 8.125C7.87503 7.89294 7.78284 7.67038 7.61874 7.50628C7.45465 7.34219 7.23209 7.25 7.00003 7.25C6.50907 7.24996 6.02797 7.11223 5.61137 6.85247C5.19476 6.59271 4.85936 6.22132 4.64325 5.78048C4.42714 5.33965 4.33899 4.84705 4.38881 4.35863C4.43863 3.87021 4.62442 3.40555 4.92508 3.01743C5.22575 2.62931 5.62923 2.33329 6.0897 2.16299C6.55017 1.99269 7.04917 1.95493 7.53002 2.05402C8.01087 2.1531 8.4543 2.38504 8.80994 2.72351C9.16557 3.06197 9.41916 3.49339 9.5419 3.96875C9.59992 4.19356 9.74486 4.38612 9.94485 4.50407C10.1448 4.62201 10.3835 4.65567 10.6083 4.59766C10.8331 4.53964 11.0257 4.3947 11.1436 4.19471C11.2616 3.99472 11.2952 3.75606 11.2372 3.53125C11.0669 2.87206 10.745 2.26173 10.2973 1.74882C9.84951 1.23591 9.28824 0.834581 8.6581 0.57676C8.02796 0.318939 7.34634 0.211745 6.66748 0.263707C5.98862 0.31567 5.33126 0.525355 4.7477 0.876077C4.16413 1.2268 3.67048 1.70888 3.30602 2.28396C2.94155 2.85904 2.71634 3.51124 2.64829 4.18868C2.58024 4.86612 2.67124 5.55009 2.91404 6.18616C3.15685 6.82224 3.54475 7.39288 4.0469 7.85266C2.85831 8.3683 1.82518 9.18575 1.05003 10.2239C0.910643 10.4096 0.850718 10.643 0.883434 10.8728C0.91615 11.1026 1.03883 11.3101 1.22448 11.4495C1.41013 11.5888 1.64355 11.6488 1.87338 11.616C2.10322 11.5833 2.31064 11.4607 2.45003 11.275C2.97742 10.5661 3.66389 9.99093 4.45417 9.59579C5.24445 9.20065 6.11647 8.99657 7.00003 9C7.23209 9 7.45465 8.90781 7.61874 8.74372C7.78284 8.57963 7.87503 8.35707 7.87503 8.125Z" fill="#BBBBBB"/>
</svg>
