<svg width="28" height="20" viewBox="0 0 28 20" fill="none" xmlns="http://www.w3.org/2000/svg">
<path d="M7.01314 11.1656C7.0161 11.2249 7.00698 11.2841 6.98633 11.3398C6.96568 11.3954 6.93392 11.4463 6.89299 11.4892C6.85207 11.5322 6.80283 11.5664 6.74827 11.5897C6.69371 11.6131 6.63498 11.6251 6.57564 11.625H1.75001C1.55252 11.6253 1.36073 11.5588 1.20584 11.4363C1.05095 11.3137 0.942063 11.1424 0.896887 10.9502C0.868757 10.8186 0.870054 10.6824 0.900685 10.5513C0.931316 10.4203 0.990524 10.2977 1.07407 10.1922C1.84605 9.16841 2.87033 8.36233 4.04689 7.85266C3.53034 7.38169 3.13416 6.79381 2.89153 6.13824C2.64891 5.48268 2.5669 4.77852 2.65237 4.08474C2.73784 3.39097 2.98832 2.72777 3.3828 2.1507C3.77729 1.57363 4.30432 1.09948 4.91973 0.767979C5.53515 0.436473 6.22104 0.257258 6.91996 0.245341C7.61888 0.233425 8.31048 0.389154 8.93684 0.699488C9.5632 1.00982 10.1061 1.46572 10.52 2.02901C10.9339 2.5923 11.2069 3.24657 11.3159 3.93703C11.33 4.02988 11.3134 4.12479 11.2686 4.20732C11.2238 4.28985 11.1532 4.35547 11.0677 4.39422C9.85403 4.95529 8.82621 5.85179 8.10547 6.97796C7.38473 8.10412 7.00116 9.41295 7.00001 10.75C7.00001 10.89 7.00001 11.0278 7.01314 11.1656ZM26.9194 10.1911C26.1492 9.16851 25.1273 8.36286 23.9531 7.85266C24.4697 7.38169 24.8659 6.79381 25.1085 6.13824C25.3511 5.48268 25.4331 4.77852 25.3477 4.08474C25.2622 3.39097 25.0117 2.72777 24.6172 2.1507C24.2227 1.57363 23.6957 1.09948 23.0803 0.767979C22.4649 0.436473 21.779 0.257258 21.0801 0.245341C20.3811 0.233425 19.6895 0.389154 19.0632 0.699488C18.4368 1.00982 17.8939 1.46572 17.48 2.02901C17.0661 2.5923 16.7931 3.24657 16.6841 3.93703C16.67 4.02988 16.6866 4.12479 16.7314 4.20732C16.7763 4.28985 16.8468 4.35547 16.9324 4.39422C18.146 4.95529 19.1738 5.85179 19.8946 6.97796C20.6153 8.10412 20.9989 9.41295 21 10.75C21 10.89 21 11.0278 20.9869 11.1656C20.9839 11.2249 20.993 11.2841 21.0137 11.3398C21.0343 11.3954 21.0661 11.4463 21.107 11.4892C21.148 11.5322 21.1972 11.5664 21.2518 11.5897C21.3063 11.6131 21.365 11.6251 21.4244 11.625H26.25C26.4475 11.6253 26.6393 11.5588 26.7942 11.4363C26.9491 11.3137 27.058 11.1424 27.1031 10.9502C27.1314 10.8183 27.1301 10.6819 27.0993 10.5506C27.0685 10.4193 27.0089 10.2965 26.9249 10.1911H26.9194ZM17.185 14.9139C18.0562 14.2467 18.6965 13.3232 19.0158 12.2733C19.3351 11.2234 19.3173 10.0999 18.9651 9.06058C18.6128 8.02129 17.9438 7.11849 17.0519 6.47909C16.1601 5.83969 15.0903 5.49582 13.9929 5.49582C12.8955 5.49582 11.8257 5.83969 10.9339 6.47909C10.0421 7.11849 9.37299 8.02129 9.02073 9.06058C8.66848 10.0999 8.65075 11.2234 8.97003 12.2733C9.28932 13.3232 9.92957 14.2467 10.8008 14.9139C9.25482 15.5838 7.9639 16.7309 7.11704 18.1875C7.04024 18.3205 6.99981 18.4714 6.99982 18.625C6.99982 18.7787 7.04027 18.9296 7.11709 19.0626C7.19391 19.1956 7.3044 19.3061 7.43744 19.3828C7.57049 19.4596 7.7214 19.5 7.87501 19.5H20.125C20.2786 19.5 20.4295 19.4596 20.5626 19.3828C20.6956 19.3061 20.8061 19.1956 20.8829 19.0626C20.9598 18.9296 21.0002 18.7787 21.0002 18.625C21.0002 18.4714 20.9598 18.3205 20.883 18.1875C20.0343 16.73 18.741 15.5827 17.1927 14.9139H17.185Z" fill="#5B2EFF"/>
</svg>
