<svg width="22" height="22" viewBox="0 0 22 22" fill="none" xmlns="http://www.w3.org/2000/svg">
<path d="M21.5 1.375V5.75C21.5 5.98206 21.4078 6.20462 21.2437 6.36872C21.0796 6.53281 20.8571 6.625 20.625 6.625C20.3929 6.625 20.1704 6.53281 20.0063 6.36872C19.8422 6.20462 19.75 5.98206 19.75 5.75V2.25H16.25C16.0179 2.25 15.7954 2.15781 15.6313 1.99372C15.4672 1.82962 15.375 1.60706 15.375 1.375C15.375 1.14294 15.4672 0.920376 15.6313 0.756282C15.7954 0.592187 16.0179 0.5 16.25 0.5H20.625C20.8571 0.5 21.0796 0.592187 21.2437 0.756282C21.4078 0.920376 21.5 1.14294 21.5 1.375ZM5.75 19.75H2.25V16.25C2.25 16.0179 2.15781 15.7954 1.99372 15.6313C1.82962 15.4672 1.60706 15.375 1.375 15.375C1.14294 15.375 0.920376 15.4672 0.756282 15.6313C0.592187 15.7954 0.5 16.0179 0.5 16.25V20.625C0.5 20.8571 0.592187 21.0796 0.756282 21.2437C0.920376 21.4078 1.14294 21.5 1.375 21.5H5.75C5.98206 21.5 6.20462 21.4078 6.36872 21.2437C6.53281 21.0796 6.625 20.8571 6.625 20.625C6.625 20.3929 6.53281 20.1704 6.36872 20.0063C6.20462 19.8422 5.98206 19.75 5.75 19.75ZM20.625 15.375C20.3929 15.375 20.1704 15.4672 20.0063 15.6313C19.8422 15.7954 19.75 16.0179 19.75 16.25V19.75H16.25C16.0179 19.75 15.7954 19.8422 15.6313 20.0063C15.4672 20.1704 15.375 20.3929 15.375 20.625C15.375 20.8571 15.4672 21.0796 15.6313 21.2437C15.7954 21.4078 16.0179 21.5 16.25 21.5H20.625C20.8571 21.5 21.0796 21.4078 21.2437 21.2437C21.4078 21.0796 21.5 20.8571 21.5 20.625V16.25C21.5 16.0179 21.4078 15.7954 21.2437 15.6313C21.0796 15.4672 20.8571 15.375 20.625 15.375ZM1.375 6.625C1.60706 6.625 1.82962 6.53281 1.99372 6.36872C2.15781 6.20462 2.25 5.98206 2.25 5.75V2.25H5.75C5.98206 2.25 6.20462 2.15781 6.36872 1.99372C6.53281 1.82962 6.625 1.60706 6.625 1.375C6.625 1.14294 6.53281 0.920376 6.36872 0.756282C6.20462 0.592187 5.98206 0.5 5.75 0.5H1.375C1.14294 0.5 0.920376 0.592187 0.756282 0.756282C0.592187 0.920376 0.5 1.14294 0.5 1.375V5.75C0.5 5.98206 0.592187 6.20462 0.756282 6.36872C0.920376 6.53281 1.14294 6.625 1.375 6.625ZM17.125 15.375V6.625C17.125 6.16087 16.9406 5.71575 16.6124 5.38756C16.2842 5.05937 15.8391 4.875 15.375 4.875H6.625C6.16087 4.875 5.71575 5.05937 5.38756 5.38756C5.05937 5.71575 4.875 6.16087 4.875 6.625V15.375C4.875 15.8391 5.05937 16.2842 5.38756 16.6124C5.71575 16.9406 6.16087 17.125 6.625 17.125H15.375C15.8391 17.125 16.2842 16.9406 16.6124 16.6124C16.9406 16.2842 17.125 15.8391 17.125 15.375Z" fill="#5B2EFF"/>
</svg>
