<svg width="25" height="24" viewBox="0 0 25 24" fill="none" xmlns="http://www.w3.org/2000/svg">
<path d="M12.5 6.75C11.4617 6.75 10.4466 7.05791 9.58328 7.63478C8.71992 8.21166 8.04702 9.0316 7.64966 9.99091C7.2523 10.9502 7.14833 12.0058 7.3509 13.0242C7.55347 14.0426 8.05349 14.9781 8.78771 15.7123C9.52194 16.4465 10.4574 16.9466 11.4758 17.1491C12.4942 17.3517 13.5498 17.2477 14.5091 16.8504C15.4684 16.453 16.2884 15.7801 16.8652 14.9167C17.4421 14.0534 17.75 13.0384 17.75 12C17.7486 10.6081 17.195 9.27354 16.2107 8.28929C15.2265 7.30504 13.892 6.75145 12.5 6.75ZM12.5 15.5C11.8078 15.5 11.1311 15.2947 10.5555 14.9101C9.97996 14.5256 9.53135 13.9789 9.26645 13.3394C9.00154 12.6999 8.93223 11.9961 9.06728 11.3172C9.20232 10.6383 9.53567 10.0146 10.0252 9.52513C10.5146 9.03564 11.1383 8.7023 11.8172 8.56725C12.4961 8.4322 13.1999 8.50151 13.8394 8.76642C14.479 9.03133 15.0256 9.47993 15.4102 10.0555C15.7948 10.6311 16 11.3078 16 12C16 12.9283 15.6313 13.8185 14.9749 14.4749C14.3185 15.1313 13.4283 15.5 12.5 15.5ZM24.5247 9.72609C24.5003 9.60288 24.4497 9.48635 24.3763 9.38444C24.3029 9.28252 24.2084 9.19761 24.0992 9.13547L20.8366 7.27609L20.8235 3.59891C20.8231 3.47226 20.7952 3.34722 20.7417 3.23241C20.6883 3.11759 20.6106 3.01575 20.5139 2.93391C19.3304 1.93279 17.9675 1.1656 16.4977 0.673124C16.3819 0.633946 16.2593 0.619447 16.1376 0.630562C16.0159 0.641676 15.8979 0.678157 15.7911 0.737656L12.5 2.57734L9.20565 0.734374C9.09885 0.674541 8.98068 0.637784 8.85878 0.62648C8.73689 0.615176 8.61398 0.629576 8.49799 0.668749C7.02925 1.16483 5.66791 1.93494 4.48612 2.93828C4.38961 3.02 4.31197 3.12167 4.25854 3.23628C4.2051 3.3509 4.17714 3.47573 4.17659 3.60219L4.16018 7.28266L0.897525 9.14203C0.78837 9.20417 0.693874 9.28909 0.620458 9.391C0.547042 9.49291 0.496428 9.60944 0.472056 9.73266C0.173458 11.2332 0.173458 12.7778 0.472056 14.2783C0.496428 14.4015 0.547042 14.518 0.620458 14.6199C0.693874 14.7219 0.78837 14.8068 0.897525 14.8689L4.16018 16.7283L4.17331 20.4055C4.1737 20.5321 4.20158 20.6572 4.25503 20.772C4.30847 20.8868 4.38619 20.9886 4.48284 21.0705C5.66635 22.0716 7.02926 22.8388 8.49909 23.3313C8.61484 23.3704 8.73751 23.3849 8.8592 23.3738C8.9809 23.3627 9.09891 23.3262 9.20565 23.2667L12.5 21.4227L15.7944 23.2656C15.9248 23.3383 16.0717 23.3759 16.221 23.375C16.3165 23.375 16.4115 23.3595 16.5021 23.3291C17.9706 22.8336 19.332 22.0643 20.5139 21.0617C20.6104 20.98 20.6881 20.8783 20.7415 20.7637C20.795 20.6491 20.8229 20.5243 20.8235 20.3978L20.8399 16.7173L24.1025 14.858C24.2117 14.7958 24.3062 14.7109 24.3796 14.609C24.453 14.5071 24.5036 14.3906 24.528 14.2673C24.8249 12.768 24.8238 11.225 24.5247 9.72609ZM22.8841 13.5444L19.7592 15.3217C19.6223 15.3996 19.509 15.5129 19.4311 15.6498C19.3677 15.7592 19.301 15.8752 19.2332 15.9845C19.1463 16.1225 19.1001 16.282 19.0997 16.445L19.0833 19.9723C18.2434 20.6319 17.3076 21.1594 16.3085 21.5364L13.1563 19.7798C13.0254 19.7074 12.8782 19.6698 12.7286 19.6705H12.7078C12.5755 19.6705 12.4421 19.6705 12.3097 19.6705C12.1532 19.6666 11.9984 19.7043 11.8613 19.7798L8.7069 21.5408C7.70558 21.1666 6.76727 20.6418 5.9244 19.9844L5.91237 16.4625C5.91183 16.2992 5.86561 16.1393 5.77893 16.0009C5.71112 15.8916 5.6444 15.7822 5.58206 15.6663C5.50475 15.5272 5.3914 15.4116 5.25393 15.3316L2.12581 13.5498C1.96393 12.5259 1.96393 11.4829 2.12581 10.4589L5.24518 8.67828C5.38209 8.60043 5.49546 8.48707 5.57331 8.35016C5.63674 8.24078 5.70346 8.12484 5.77128 8.01547C5.85808 7.87754 5.90432 7.71797 5.90471 7.555L5.92112 4.02766C6.76104 3.36807 7.69678 2.84063 8.69596 2.46359L11.8438 4.22016C11.9808 4.29609 12.1356 4.33387 12.2922 4.32953C12.4246 4.32953 12.558 4.32953 12.6903 4.32953C12.8469 4.33344 13.0016 4.2957 13.1388 4.22016L16.2931 2.45922C17.2945 2.83336 18.2328 3.35821 19.0756 4.01562L19.0877 7.5375C19.0882 7.70079 19.1344 7.86067 19.2211 7.99906C19.2889 8.10844 19.3556 8.21781 19.418 8.33375C19.4953 8.47278 19.6086 8.5884 19.7461 8.66844L22.8742 10.4502C23.0383 11.4749 23.0401 12.5191 22.8797 13.5444H22.8841Z" fill="#AAAAAA"/>
</svg>
