<svg width="25" height="24" viewBox="0 0 25 24" fill="none" xmlns="http://www.w3.org/2000/svg">
<path d="M24.5247 9.72609C24.5003 9.60288 24.4497 9.48635 24.3763 9.38444C24.3029 9.28252 24.2084 9.19761 24.0992 9.13547L20.8366 7.27609L20.8235 3.59891C20.8231 3.47226 20.7952 3.34722 20.7417 3.23241C20.6883 3.11759 20.6106 3.01575 20.5139 2.93391C19.3304 1.93279 17.9675 1.1656 16.4977 0.673124C16.3819 0.633946 16.2593 0.619447 16.1376 0.630562C16.0159 0.641676 15.8979 0.678157 15.7911 0.737656L12.5 2.57734L9.20565 0.734374C9.09885 0.674541 8.98068 0.637784 8.85878 0.62648C8.73689 0.615176 8.61398 0.629576 8.49799 0.668749C7.02905 1.16439 5.66763 1.93455 4.48612 2.93828C4.38961 3.02 4.31197 3.12167 4.25854 3.23628C4.2051 3.3509 4.17714 3.47573 4.17659 3.60219L4.16018 7.28266L0.897525 9.14203C0.78837 9.20417 0.693874 9.28909 0.620458 9.391C0.547042 9.49292 0.496428 9.60944 0.472056 9.73266C0.173458 11.2332 0.173458 12.7778 0.472056 14.2783C0.496428 14.4015 0.547042 14.518 0.620458 14.6199C0.693874 14.7219 0.78837 14.8068 0.897525 14.8689L4.16018 16.7283L4.17331 20.4066C4.1737 20.5332 4.20158 20.6583 4.25503 20.7731C4.30847 20.8879 4.38619 20.9897 4.48284 21.0716C5.66635 22.0727 7.02926 22.8399 8.49909 23.3323C8.61484 23.3715 8.73751 23.386 8.8592 23.3749C8.9809 23.3638 9.09891 23.3273 9.20565 23.2678L12.5 21.4227L15.7944 23.2656C15.9248 23.3383 16.0717 23.3759 16.221 23.375C16.3165 23.375 16.4115 23.3595 16.5021 23.3291C17.9706 22.8336 19.332 22.0643 20.5139 21.0617C20.6104 20.98 20.6881 20.8783 20.7415 20.7637C20.795 20.6491 20.8229 20.5243 20.8235 20.3978L20.8399 16.7173L24.1025 14.858C24.2117 14.7958 24.3062 14.7109 24.3796 14.609C24.453 14.5071 24.5036 14.3906 24.528 14.2673C24.8249 12.768 24.8238 11.225 24.5247 9.72609ZM12.5 16.375C11.6347 16.375 10.7889 16.1184 10.0694 15.6377C9.34994 15.1569 8.78918 14.4737 8.45805 13.6742C8.12692 12.8748 8.04028 11.9951 8.20909 11.1465C8.3779 10.2978 8.79458 9.51826 9.40643 8.90641C10.0183 8.29455 10.7978 7.87787 11.6465 7.70906C12.4952 7.54025 13.3748 7.62689 14.1743 7.95803C14.9737 8.28916 15.657 8.84992 16.1377 9.56938C16.6184 10.2888 16.875 11.1347 16.875 12C16.875 13.1603 16.4141 14.2731 15.5936 15.0936C14.7731 15.9141 13.6603 16.375 12.5 16.375Z" fill="#5B2EFF"/>
</svg>
