<svg width="160" height="160" viewBox="0 0 160 160" fill="none" xmlns="http://www.w3.org/2000/svg">
<g clip-path="url(#clip0_254_33679)">
<path d="M134.147 55.5449C135.359 56.3321 134.959 57.5753 134.965 58.6561C134.996 64.1412 134.971 69.6264 134.965 75.1115C119.433 75.1615 103.907 75.2052 88.3752 75.2739C85.5887 75.2864 82.8021 75.4176 80.0156 75.4926C80.0469 75.3364 80.0344 75.1802 79.9844 75.0303C79.9969 58.3624 80.0031 41.6883 80.0156 25.0205C88.269 25.0955 96.5223 25.1704 104.776 25.2392C102.558 26.7323 101.552 28.7127 102.445 31.3678C103.339 34.0229 105.475 34.4415 107.937 34.4102C112.192 34.3478 116.453 34.3602 120.708 34.404C123.975 34.4352 125.206 35.6285 125.268 38.9208C125.343 43.1752 125.3 47.4359 125.287 51.6903C125.281 53.9643 125.537 56.1072 127.992 57.1317C130.423 58.1438 132.416 57.3316 134.147 55.5449Z" fill="#D8F1FA"/>
<path d="M80.0155 25.0205C80.003 41.6883 79.9968 58.3624 79.9843 75.0303C61.6657 75.0428 43.3472 75.0553 25.0348 75.0678C25.3222 68.5143 24.3288 61.9172 25.7596 55.4137C27.534 57.3129 29.577 58.2125 32.1386 57.0817C34.5752 56.0072 34.7502 53.8456 34.7502 51.5966C34.7439 47.7607 34.7377 43.9311 34.7502 40.0953C34.7689 35.3161 35.6624 34.4102 40.317 34.404C44.2531 34.3977 48.1892 34.354 52.1253 34.4165C54.587 34.454 56.705 34.0041 57.5859 31.3553C58.4668 28.7064 57.4609 26.7323 55.2367 25.2517C63.4901 25.1704 71.7559 25.0955 80.0155 25.0205Z" fill="#EBF8FB"/>
<path d="M134.965 84.8699C134.971 90.1488 134.996 95.4216 134.965 100.701C134.959 101.781 135.359 103.025 134.147 103.812C132.416 102.012 130.417 101.219 127.98 102.231C125.518 103.256 125.268 105.405 125.281 107.685C125.293 111.946 125.343 116.213 125.262 120.473C125.2 123.753 123.956 124.928 120.664 124.959C116.503 125.003 112.348 125.015 108.187 124.953C105.644 124.915 103.345 125.203 102.426 128.051C101.508 130.888 102.72 132.855 105.113 134.286C96.7472 134.305 88.3814 134.317 80.0156 134.336C80.0031 117.874 79.9969 101.413 79.9844 84.9511C80.0344 84.8011 80.0406 84.645 80.0094 84.4888C81.3464 84.5637 82.6834 84.7012 84.0205 84.7074C101.002 84.7699 117.984 84.8199 134.965 84.8699Z" fill="#D8F1FA"/>
<path d="M79.9844 84.9509C79.9969 101.413 80.0031 117.874 80.0156 134.336C71.756 134.261 63.4902 134.186 55.2306 134.111C57.4611 132.63 58.4607 130.656 57.5798 128.007C56.6988 125.359 54.5808 124.902 52.1192 124.946C48.1831 125.009 44.247 124.971 40.3108 124.959C35.7624 124.952 34.7753 124.009 34.7503 119.567C34.7253 115.631 34.7378 111.696 34.7441 107.76C34.7503 105.511 34.5754 103.343 32.1325 102.275C29.5709 101.15 27.5278 102.044 25.7535 103.949C24.3415 97.6517 25.3036 91.2607 25.0287 84.9196C30.8579 84.8759 36.6871 84.7947 42.5101 84.8072C55.0057 84.8259 67.495 84.9009 79.9844 84.9509Z" fill="#EBF8FB"/>
<path d="M79.9844 84.9509C67.4951 84.9009 55.0057 84.826 42.5163 84.801C36.6871 84.7885 30.8579 84.8759 25.035 84.9134C18.6997 84.8697 12.3644 84.8135 6.02917 84.7885C3.6925 84.776 1.67446 84.22 0.712293 81.8148C-0.655976 78.41 1.64322 75.2988 5.71678 75.2176C12.152 75.0926 18.5935 75.1051 25.035 75.0614C43.3536 75.0489 61.6721 75.0364 79.9844 75.0239C80.0344 75.1739 80.0469 75.33 80.0157 75.4862C80.0157 78.4849 80.0157 81.4837 80.0157 84.4761C80.0469 84.6448 80.0344 84.801 79.9844 84.9509Z" fill="#60B865"/>
<path d="M80.0093 84.4887C80.0093 81.4899 80.0093 78.4912 80.0093 75.4988C82.7958 75.4238 85.5823 75.2926 88.3688 75.2801C103.901 75.2114 119.427 75.1677 134.959 75.1177C141.288 75.1864 147.623 75.2239 153.952 75.3238C157.807 75.3863 159.581 76.9044 159.581 79.9906C159.581 83.0768 157.807 84.5949 153.952 84.6573C147.623 84.7635 141.288 84.801 134.959 84.8635C117.977 84.8135 100.996 84.7698 84.0204 84.7011C82.6833 84.7011 81.3463 84.5636 80.0093 84.4887Z" fill="#00A863"/>
<path d="M159.981 27.7319C159.981 31.5865 160.025 35.4349 159.969 39.2895C159.919 42.4444 158.076 44.3623 155.27 44.3498C152.471 44.3373 150.647 42.4131 150.622 39.2457C150.572 32.2675 150.622 25.2955 150.603 18.3172C150.585 12.5572 147.479 9.42729 141.769 9.40855C134.896 9.38356 128.024 9.42104 121.151 9.39605C117.671 9.38356 115.722 7.71552 115.659 4.81677C115.591 1.81806 117.621 0.04382 121.257 0.0375726C128.336 0.0125834 135.421 -0.0249005 142.5 0.04382C152.403 0.13753 159.838 7.55934 159.981 17.4301C160.025 20.8599 159.981 24.2959 159.981 27.7319Z" fill="#021838"/>
<path d="M159.975 132.031C159.969 135.673 160.037 139.321 159.956 142.964C159.744 152.328 152.371 159.769 143.018 159.931C135.627 160.056 128.23 159.994 120.839 159.95C117.621 159.931 115.722 158.188 115.647 155.39C115.572 152.485 117.559 150.623 120.92 150.604C127.899 150.567 134.871 150.617 141.85 150.585C147.392 150.56 150.56 147.412 150.591 141.889C150.628 135.123 150.591 128.351 150.603 121.585C150.61 117.668 152.29 115.594 155.358 115.638C158.419 115.682 159.962 117.712 159.975 121.723C159.987 125.159 159.981 128.595 159.975 132.031Z" fill="#021838"/>
<path d="M27.8028 0.0250437C30.7205 0.0250437 33.632 0.0250437 36.5497 0.0250437C42.2665 0.0250437 44.422 1.34323 44.3657 4.79175C44.3095 8.14031 42.2165 9.40227 36.7059 9.40227C30.5643 9.40227 24.4227 9.38352 18.2811 9.40851C12.5519 9.4335 9.44051 12.5509 9.42176 18.2984C9.39677 25.1705 9.44051 32.0363 9.40302 38.9083C9.38428 42.3631 7.66613 44.3248 4.76715 44.3498C1.87442 44.3747 0.0625546 42.3881 0.0438112 39.002C0.0125722 31.7114 -0.0436581 24.4271 0.0625546 17.1364C0.200006 7.62178 7.65364 0.224958 17.1815 0.0437856C20.7178 -0.0249349 24.2603 0.031291 27.8028 0.0250437Z" fill="#02367B"/>
<path d="M0.0374141 131.85C0.0374141 128.207 -7.26916e-05 124.565 0.0499097 120.917C0.0936444 117.549 1.9305 115.569 4.83573 115.638C7.64724 115.7 9.37788 117.587 9.39662 120.823C9.44036 127.795 9.39038 134.773 9.41537 141.745C9.44036 147.455 12.5705 150.554 18.3372 150.579C25.1036 150.604 31.87 150.573 38.6363 150.591C42.3225 150.604 44.3531 152.284 44.3593 155.258C44.3656 158.238 42.335 159.944 38.6676 159.956C31.5888 159.975 24.5101 160.025 17.4313 159.944C7.56602 159.837 0.168618 152.366 0.0436619 142.464C-7.26916e-05 138.928 0.0374141 135.385 0.0374141 131.85Z" fill="#02367B"/>
<path d="M55.2305 25.2455C57.4548 26.7261 58.4606 28.7003 57.5797 31.3491C56.6988 33.998 54.5808 34.4541 52.1191 34.4103C48.183 34.3479 44.2469 34.3853 40.3108 34.3978C35.6562 34.4041 34.7627 35.3162 34.744 40.0891C34.7315 43.925 34.7377 47.7546 34.744 51.5904C34.7502 53.8395 34.569 56.0011 32.1324 57.0756C29.5708 58.2064 27.5278 57.3067 25.7534 55.4076C24.9412 48.7917 24.9599 42.1445 25.6722 35.5598C26.2657 30.0872 31.2889 25.4329 36.887 25.1393C42.9911 24.8207 49.1202 24.752 55.2305 25.2455Z" fill="#073A7E"/>
<path d="M25.7596 103.949C27.534 102.05 29.5771 101.15 32.1387 102.275C34.5815 103.349 34.7502 105.517 34.7502 107.76C34.744 111.696 34.7315 115.631 34.7565 119.567C34.7815 124.009 35.7686 124.946 40.317 124.959C44.2531 124.965 48.1893 125.009 52.1254 124.946C54.587 124.909 56.705 125.359 57.586 128.007C58.4669 130.656 57.4673 132.63 55.2368 134.111C49.1264 134.605 42.9973 134.542 36.8995 134.211C31.2952 133.911 26.2782 129.263 25.6847 123.79C24.9662 117.212 24.9474 110.559 25.7596 103.949Z" fill="#073A7E"/>
<path d="M134.147 55.5448C132.416 57.3253 130.423 58.1437 127.986 57.1254C125.531 56.1008 125.275 53.958 125.281 51.684C125.293 47.4295 125.337 43.1689 125.262 38.9145C125.206 35.6221 123.969 34.4351 120.701 34.3976C116.447 34.3539 112.186 34.3414 107.931 34.4039C105.469 34.4414 103.332 34.0166 102.439 31.3614C101.546 28.7126 102.551 26.7322 104.769 25.2328C110.899 24.7455 117.046 24.8143 123.163 25.1391C128.524 25.4203 133.572 29.8184 134.228 35.0286C135.09 41.8319 135.153 48.7165 134.147 55.5448Z" fill="#041B3B"/>
<path d="M105.113 134.286C102.72 132.855 101.508 130.888 102.427 128.051C103.345 125.202 105.644 124.909 108.187 124.953C112.342 125.015 116.503 125.003 120.664 124.959C123.957 124.928 125.2 123.753 125.262 120.473C125.344 116.213 125.294 111.946 125.281 107.685C125.275 105.405 125.518 103.262 127.98 102.231C130.417 101.219 132.416 102.012 134.147 103.812C135.146 110.64 135.121 117.518 134.228 124.303C133.478 129.994 127.918 134.211 121.951 134.317C116.34 134.411 110.724 134.305 105.113 134.286Z" fill="#041B3B"/>
</g>
<defs>
<clipPath id="clip0_254_33679">
<rect width="160" height="160" fill="white"/>
</clipPath>
</defs>
</svg>
