<svg width="36" height="36" viewBox="0 0 36 36" fill="none" xmlns="http://www.w3.org/2000/svg">
<path d="M17.7578 35.9819C14.779 35.9819 12.3731 35.9803 9.96724 35.9819C8.67684 35.9835 7.40891 35.8197 6.1795 35.4215C2.47842 34.2251 0.138371 31.0871 0.072567 26.9102C-0.0124967 21.5609 -0.0381763 16.2068 0.0805919 10.8591C0.200965 5.45367 3.78487 1.8982 9.17759 1.77615C13.9877 1.66855 18.8026 1.736 23.6159 1.73921C24.0894 1.73921 24.4377 1.67979 24.7491 1.22853C25.3285 0.385432 26.1983 0.00162057 27.2303 0.00162057C29.0745 0.00322647 30.9202 -0.00480306 32.7643 0.00483238C34.6277 0.0128619 35.9887 1.38431 35.9951 3.25519C36.0031 5.07468 35.9887 6.89417 35.9999 8.71205C36.0063 9.81049 35.5858 10.7034 34.6999 11.3249C34.334 11.5818 34.2601 11.85 34.2617 12.2499C34.2714 16.7448 34.2633 21.2397 34.2698 25.733C34.2714 26.9953 34.1863 28.2447 33.8428 29.4636C32.8365 33.0271 30.1033 35.3781 26.4006 35.8197C23.3367 36.1891 20.2567 35.8695 17.7578 35.9819ZM31.697 19.841C31.697 17.2587 31.6938 14.8081 31.7002 12.3575C31.7018 11.903 31.3824 12.0186 31.1433 12.0186C29.8866 12.0122 28.6299 12.0186 27.3716 12.0186C25.375 12.0186 23.9899 10.6375 23.9883 8.64782C23.9883 7.39039 23.9819 6.13297 23.9979 4.87554C24.0027 4.5094 23.9787 4.29421 23.502 4.29742C18.6341 4.32632 13.7662 4.2653 8.90153 4.36808C5.67232 4.43553 3.49437 6.34655 2.8267 9.41223C2.67263 10.1172 2.60361 10.8367 2.60361 11.5625C2.61003 16.4332 2.61003 21.304 2.60361 26.1731C2.60201 27.0097 2.75929 27.8191 2.93905 28.6301C3.06745 29.2114 3.22634 29.4363 3.84426 28.9995C5.58887 27.7661 7.38002 26.6018 9.15351 25.4087C11.126 24.0822 12.6556 24.148 14.4788 25.6367C16.2427 27.0756 18.1173 27.0483 19.8443 25.5628C22.0543 23.663 24.2708 21.7681 26.4792 19.8667C27.5513 18.9433 28.7663 18.6382 30.1337 18.9995C30.6746 19.1392 31.1433 19.4395 31.697 19.841ZM31.0213 3.56673C31.0213 3.35315 31.0213 3.13956 31.0213 2.92437C31.0181 2.02827 30.6875 1.59307 30.0086 1.58826C29.3345 1.58344 28.991 2.03309 28.9541 2.9067C28.9252 3.58921 29.2622 4.52385 28.8032 4.88036C28.3667 5.21921 27.4743 4.98314 26.7842 4.97672C26.1004 4.97029 25.635 5.23205 25.566 5.95311C25.5066 6.58744 25.9977 7.03388 26.7553 7.05476C27.3427 7.07082 27.9317 7.07403 28.5191 7.04191C28.8835 7.02264 28.9798 7.15754 28.9669 7.49799C28.9445 8.08575 28.9461 8.67512 28.9653 9.26288C28.9894 9.99999 29.3922 10.4464 29.9957 10.448C30.6056 10.4496 31.0069 10.0016 31.0213 9.2693C31.0341 8.68154 31.0373 8.09217 31.0101 7.50441C30.994 7.15272 31.1064 7.03709 31.4595 7.05155C32.0726 7.07724 32.6889 7.07885 33.3036 7.05155C34.013 7.02103 34.4656 6.5778 34.4254 5.95792C34.3821 5.2722 33.9568 4.97993 33.3004 4.97832C33.0067 4.97832 32.7129 4.97832 32.4176 4.97832C31.0085 4.98153 31.0085 4.98153 31.0213 3.56673Z" fill="#777777"/>
</svg>
